<mxfile host="65bd71144e">
    <diagram id="VzATXcKWltoqgMeSLEH0" name="Page-1">
        <mxGraphModel dx="1358" dy="765" grid="0" gridSize="10" guides="1" tooltips="1" connect="1" arrows="1" fold="1" page="1" pageScale="1" pageWidth="850" pageHeight="1100" math="0" shadow="0">
            <root>
                <mxCell id="0"/>
                <mxCell id="1" style="locked=1;" parent="0"/>
                <mxCell id="2" value="Producer" style="rounded=0;whiteSpace=wrap;html=1;sketch=1;fillColor=#ffe6cc;strokeColor=#d79b00;" vertex="1" parent="1">
                    <mxGeometry x="30" y="30" width="120" height="60" as="geometry"/>
                </mxCell>
                <mxCell id="3" value="Broker 0" style="rounded=1;whiteSpace=wrap;html=1;sketch=1;arcSize=6;verticalAlign=top;" vertex="1" parent="1">
                    <mxGeometry x="40" y="170" width="180" height="280" as="geometry"/>
                </mxCell>
                <mxCell id="4" value="topic" style="shape=cylinder3;whiteSpace=wrap;html=1;boundedLbl=1;backgroundOutline=1;size=4;fontSize=10;direction=south;fillColor=#f8cecc;strokeColor=#b85450;sketch=1;" vertex="1" parent="1">
                    <mxGeometry x="100" y="210" width="60" height="30" as="geometry"/>
                </mxCell>
                <mxCell id="17" style="edgeStyle=orthogonalEdgeStyle;html=1;" edge="1" parent="1" source="2" target="4">
                    <mxGeometry relative="1" as="geometry"/>
                </mxCell>
                <mxCell id="18" value="Broker 1" style="rounded=1;whiteSpace=wrap;html=1;sketch=1;arcSize=6;verticalAlign=top;" vertex="1" parent="1">
                    <mxGeometry x="280" y="170" width="180" height="280" as="geometry"/>
                </mxCell>
                <mxCell id="19" value="Broker 2" style="rounded=1;whiteSpace=wrap;html=1;sketch=1;arcSize=6;verticalAlign=top;" vertex="1" parent="1">
                    <mxGeometry x="490" y="170" width="180" height="280" as="geometry"/>
                </mxCell>
                <mxCell id="22" style="edgeStyle=orthogonalEdgeStyle;html=1;entryX=0.5;entryY=0;entryDx=0;entryDy=0;entryPerimeter=0;" edge="1" parent="1" source="20" target="4">
                    <mxGeometry relative="1" as="geometry"/>
                </mxCell>
                <mxCell id="20" value="replica topic" style="shape=cylinder3;whiteSpace=wrap;html=1;boundedLbl=1;backgroundOutline=1;size=4;fontSize=10;direction=south;fillColor=#ffe6cc;strokeColor=#d79b00;sketch=1;" vertex="1" parent="1">
                    <mxGeometry x="320" y="210" width="60" height="30" as="geometry"/>
                </mxCell>
                <mxCell id="23" style="edgeStyle=orthogonalEdgeStyle;html=1;entryX=0.855;entryY=0;entryDx=0;entryDy=1.16;entryPerimeter=0;" edge="1" parent="1" source="21" target="4">
                    <mxGeometry relative="1" as="geometry"/>
                </mxCell>
                <mxCell id="21" value="replica topic" style="shape=cylinder3;whiteSpace=wrap;html=1;boundedLbl=1;backgroundOutline=1;size=4;fontSize=10;direction=south;fillColor=#ffe6cc;strokeColor=#d79b00;sketch=1;" vertex="1" parent="1">
                    <mxGeometry x="550" y="270" width="60" height="30" as="geometry"/>
                </mxCell>
                <mxCell id="24" value="mesg sent" style="locked=1;" parent="0"/>
                <mxCell id="26" value="" style="group" vertex="1" connectable="0" parent="24">
                    <mxGeometry x="70" y="250" width="40" height="30" as="geometry"/>
                </mxCell>
                <mxCell id="27" value="" style="rounded=0;whiteSpace=wrap;html=1;sketch=1;" vertex="1" parent="26">
                    <mxGeometry width="40" height="30" as="geometry"/>
                </mxCell>
                <mxCell id="28" value="" style="triangle;whiteSpace=wrap;html=1;sketch=1;rotation=90;" vertex="1" parent="26">
                    <mxGeometry x="12.5" y="-12.5" width="15" height="40" as="geometry"/>
                </mxCell>
                <mxCell id="29" value="" style="group" vertex="1" connectable="0" parent="24">
                    <mxGeometry x="80" y="260" width="40" height="30" as="geometry"/>
                </mxCell>
                <mxCell id="30" value="" style="rounded=0;whiteSpace=wrap;html=1;sketch=1;" vertex="1" parent="29">
                    <mxGeometry width="40" height="30" as="geometry"/>
                </mxCell>
                <mxCell id="31" value="" style="triangle;whiteSpace=wrap;html=1;sketch=1;rotation=90;" vertex="1" parent="29">
                    <mxGeometry x="12.5" y="-12.5" width="15" height="40" as="geometry"/>
                </mxCell>
                <mxCell id="32" value="" style="group" vertex="1" connectable="0" parent="24">
                    <mxGeometry x="90" y="270" width="40" height="30" as="geometry"/>
                </mxCell>
                <mxCell id="33" value="" style="rounded=0;whiteSpace=wrap;html=1;sketch=1;" vertex="1" parent="32">
                    <mxGeometry width="40" height="30" as="geometry"/>
                </mxCell>
                <mxCell id="34" value="" style="triangle;whiteSpace=wrap;html=1;sketch=1;rotation=90;" vertex="1" parent="32">
                    <mxGeometry x="12.5" y="-12.5" width="15" height="40" as="geometry"/>
                </mxCell>
                <mxCell id="35" value="" style="group" vertex="1" connectable="0" parent="24">
                    <mxGeometry x="100" y="280" width="40" height="30" as="geometry"/>
                </mxCell>
                <mxCell id="36" value="" style="rounded=0;whiteSpace=wrap;html=1;sketch=1;" vertex="1" parent="35">
                    <mxGeometry width="40" height="30" as="geometry"/>
                </mxCell>
                <mxCell id="37" value="" style="triangle;whiteSpace=wrap;html=1;sketch=1;rotation=90;" vertex="1" parent="35">
                    <mxGeometry x="12.5" y="-12.5" width="15" height="40" as="geometry"/>
                </mxCell>
                <mxCell id="38" value="message replicated" style="" parent="0"/>
                <mxCell id="51" value="" style="group" vertex="1" connectable="0" parent="38">
                    <mxGeometry x="580" y="310" width="70" height="60" as="geometry"/>
                </mxCell>
                <mxCell id="39" value="" style="group" vertex="1" connectable="0" parent="51">
                    <mxGeometry width="40" height="30" as="geometry"/>
                </mxCell>
                <mxCell id="40" value="" style="rounded=0;whiteSpace=wrap;html=1;sketch=1;" vertex="1" parent="39">
                    <mxGeometry width="40" height="30" as="geometry"/>
                </mxCell>
                <mxCell id="41" value="" style="triangle;whiteSpace=wrap;html=1;sketch=1;rotation=90;" vertex="1" parent="39">
                    <mxGeometry x="12.5" y="-12.5" width="15" height="40" as="geometry"/>
                </mxCell>
                <mxCell id="42" value="" style="group" vertex="1" connectable="0" parent="51">
                    <mxGeometry x="10" y="10" width="40" height="30" as="geometry"/>
                </mxCell>
                <mxCell id="43" value="" style="rounded=0;whiteSpace=wrap;html=1;sketch=1;" vertex="1" parent="42">
                    <mxGeometry width="40" height="30" as="geometry"/>
                </mxCell>
                <mxCell id="44" value="" style="triangle;whiteSpace=wrap;html=1;sketch=1;rotation=90;" vertex="1" parent="42">
                    <mxGeometry x="12.5" y="-12.5" width="15" height="40" as="geometry"/>
                </mxCell>
                <mxCell id="45" value="" style="group" vertex="1" connectable="0" parent="51">
                    <mxGeometry x="20" y="20" width="40" height="30" as="geometry"/>
                </mxCell>
                <mxCell id="46" value="" style="rounded=0;whiteSpace=wrap;html=1;sketch=1;" vertex="1" parent="45">
                    <mxGeometry width="40" height="30" as="geometry"/>
                </mxCell>
                <mxCell id="47" value="" style="triangle;whiteSpace=wrap;html=1;sketch=1;rotation=90;" vertex="1" parent="45">
                    <mxGeometry x="12.5" y="-12.5" width="15" height="40" as="geometry"/>
                </mxCell>
                <mxCell id="48" value="" style="group" vertex="1" connectable="0" parent="51">
                    <mxGeometry x="30" y="30" width="40" height="30" as="geometry"/>
                </mxCell>
                <mxCell id="49" value="" style="rounded=0;whiteSpace=wrap;html=1;sketch=1;" vertex="1" parent="48">
                    <mxGeometry width="40" height="30" as="geometry"/>
                </mxCell>
                <mxCell id="50" value="" style="triangle;whiteSpace=wrap;html=1;sketch=1;rotation=90;" vertex="1" parent="48">
                    <mxGeometry x="12.5" y="-12.5" width="15" height="40" as="geometry"/>
                </mxCell>
                <mxCell id="52" value="" style="group" vertex="1" connectable="0" parent="38">
                    <mxGeometry x="346" y="253" width="70" height="60" as="geometry"/>
                </mxCell>
                <mxCell id="53" value="" style="group" vertex="1" connectable="0" parent="52">
                    <mxGeometry width="40" height="30" as="geometry"/>
                </mxCell>
                <mxCell id="54" value="" style="rounded=0;whiteSpace=wrap;html=1;sketch=1;" vertex="1" parent="53">
                    <mxGeometry width="40" height="30" as="geometry"/>
                </mxCell>
                <mxCell id="55" value="" style="triangle;whiteSpace=wrap;html=1;sketch=1;rotation=90;" vertex="1" parent="53">
                    <mxGeometry x="12.5" y="-12.5" width="15" height="40" as="geometry"/>
                </mxCell>
                <mxCell id="56" value="" style="group" vertex="1" connectable="0" parent="52">
                    <mxGeometry x="10" y="10" width="40" height="30" as="geometry"/>
                </mxCell>
                <mxCell id="57" value="" style="rounded=0;whiteSpace=wrap;html=1;sketch=1;" vertex="1" parent="56">
                    <mxGeometry width="40" height="30" as="geometry"/>
                </mxCell>
                <mxCell id="58" value="" style="triangle;whiteSpace=wrap;html=1;sketch=1;rotation=90;" vertex="1" parent="56">
                    <mxGeometry x="12.5" y="-12.5" width="15" height="40" as="geometry"/>
                </mxCell>
                <mxCell id="59" value="" style="group" vertex="1" connectable="0" parent="52">
                    <mxGeometry x="20" y="20" width="40" height="30" as="geometry"/>
                </mxCell>
                <mxCell id="60" value="" style="rounded=0;whiteSpace=wrap;html=1;sketch=1;" vertex="1" parent="59">
                    <mxGeometry width="40" height="30" as="geometry"/>
                </mxCell>
                <mxCell id="61" value="" style="triangle;whiteSpace=wrap;html=1;sketch=1;rotation=90;" vertex="1" parent="59">
                    <mxGeometry x="12.5" y="-12.5" width="15" height="40" as="geometry"/>
                </mxCell>
                <mxCell id="62" value="" style="group" vertex="1" connectable="0" parent="52">
                    <mxGeometry x="30" y="30" width="40" height="30" as="geometry"/>
                </mxCell>
                <mxCell id="63" value="" style="rounded=0;whiteSpace=wrap;html=1;sketch=1;" vertex="1" parent="62">
                    <mxGeometry width="40" height="30" as="geometry"/>
                </mxCell>
                <mxCell id="64" value="" style="triangle;whiteSpace=wrap;html=1;sketch=1;rotation=90;" vertex="1" parent="62">
                    <mxGeometry x="12.5" y="-12.5" width="15" height="40" as="geometry"/>
                </mxCell>
                <mxCell id="78" value="more msg" parent="0"/>
                <mxCell id="79" value="" style="group" vertex="1" connectable="0" parent="78">
                    <mxGeometry x="80" y="260" width="40" height="30" as="geometry"/>
                </mxCell>
                <mxCell id="80" value="" style="rounded=0;whiteSpace=wrap;html=1;sketch=1;" vertex="1" parent="79">
                    <mxGeometry width="40" height="30" as="geometry"/>
                </mxCell>
                <mxCell id="81" value="" style="triangle;whiteSpace=wrap;html=1;sketch=1;rotation=90;" vertex="1" parent="79">
                    <mxGeometry x="12.5" y="-12.5" width="15" height="40" as="geometry"/>
                </mxCell>
                <mxCell id="82" value="" style="group" vertex="1" connectable="0" parent="78">
                    <mxGeometry x="90" y="270" width="40" height="30" as="geometry"/>
                </mxCell>
                <mxCell id="83" value="" style="rounded=0;whiteSpace=wrap;html=1;sketch=1;" vertex="1" parent="82">
                    <mxGeometry width="40" height="30" as="geometry"/>
                </mxCell>
                <mxCell id="84" value="" style="triangle;whiteSpace=wrap;html=1;sketch=1;rotation=90;" vertex="1" parent="82">
                    <mxGeometry x="12.5" y="-12.5" width="15" height="40" as="geometry"/>
                </mxCell>
                <mxCell id="85" value="" style="group" vertex="1" connectable="0" parent="78">
                    <mxGeometry x="100" y="280" width="40" height="30" as="geometry"/>
                </mxCell>
                <mxCell id="86" value="" style="rounded=0;whiteSpace=wrap;html=1;sketch=1;" vertex="1" parent="85">
                    <mxGeometry width="40" height="30" as="geometry"/>
                </mxCell>
                <mxCell id="87" value="" style="triangle;whiteSpace=wrap;html=1;sketch=1;rotation=90;" vertex="1" parent="85">
                    <mxGeometry x="12.5" y="-12.5" width="15" height="40" as="geometry"/>
                </mxCell>
                <mxCell id="88" value="" style="group;fillColor=#ffe6cc;strokeColor=#d79b00;" vertex="1" connectable="0" parent="78">
                    <mxGeometry x="117" y="300" width="40" height="30" as="geometry"/>
                </mxCell>
                <mxCell id="89" value="" style="rounded=0;whiteSpace=wrap;html=1;sketch=1;fillColor=#ffe6cc;strokeColor=#d79b00;" vertex="1" parent="88">
                    <mxGeometry width="40" height="30" as="geometry"/>
                </mxCell>
                <mxCell id="90" value="" style="triangle;whiteSpace=wrap;html=1;sketch=1;rotation=90;fillColor=#ffe6cc;strokeColor=#d79b00;" vertex="1" parent="88">
                    <mxGeometry x="12.5" y="-12.5" width="15" height="40" as="geometry"/>
                </mxCell>
                <mxCell id="91" value="" style="group;fillColor=#ffe6cc;strokeColor=#d79b00;" vertex="1" connectable="0" parent="78">
                    <mxGeometry x="127" y="310" width="40" height="30" as="geometry"/>
                </mxCell>
                <mxCell id="92" value="" style="rounded=0;whiteSpace=wrap;html=1;sketch=1;fillColor=#ffe6cc;strokeColor=#d79b00;" vertex="1" parent="91">
                    <mxGeometry width="40" height="30" as="geometry"/>
                </mxCell>
                <mxCell id="93" value="" style="triangle;whiteSpace=wrap;html=1;sketch=1;rotation=90;fillColor=#ffe6cc;strokeColor=#d79b00;" vertex="1" parent="91">
                    <mxGeometry x="12.5" y="-12.5" width="15" height="40" as="geometry"/>
                </mxCell>
                <mxCell id="94" value="" style="group;fillColor=#ffe6cc;strokeColor=#d79b00;" vertex="1" connectable="0" parent="78">
                    <mxGeometry x="137" y="320" width="40" height="30" as="geometry"/>
                </mxCell>
                <mxCell id="95" value="" style="rounded=0;whiteSpace=wrap;html=1;sketch=1;fillColor=#ffe6cc;strokeColor=#d79b00;" vertex="1" parent="94">
                    <mxGeometry width="40" height="30" as="geometry"/>
                </mxCell>
                <mxCell id="96" value="" style="triangle;whiteSpace=wrap;html=1;sketch=1;rotation=90;fillColor=#ffe6cc;strokeColor=#d79b00;" vertex="1" parent="94">
                    <mxGeometry x="12.5" y="-12.5" width="15" height="40" as="geometry"/>
                </mxCell>
                <mxCell id="98" value="error" style="" parent="0"/>
                <mxCell id="99" value="" style="ellipse;shape=cloud;whiteSpace=wrap;html=1;sketch=1;fillColor=default;strokeColor=#b85450;" vertex="1" parent="98">
                    <mxGeometry x="50" y="140" width="190" height="240" as="geometry"/>
                </mxCell>
                <mxCell id="104" value="Boom!!!" style="ellipse;shape=cloud;whiteSpace=wrap;html=1;sketch=1;fillColor=default;strokeColor=#b85450;" vertex="1" parent="98">
                    <mxGeometry x="75.5" y="165" width="139" height="183" as="geometry"/>
                </mxCell>
                <mxCell id="101" value="toggles" parent="0" visible="0"/>
                <UserObject label="L1" link="data:action/json,{   &quot;actions&quot;: [     {       &quot;toggle&quot;: {         &quot;excludeCells&quot;: [           &quot;24,38,78,98,101&quot;         ]       }     }   ] }" id="102">
                    <mxCell style="ellipse;whiteSpace=wrap;html=1;sketch=1;fillColor=default;" vertex="1" parent="101">
                        <mxGeometry x="30" y="480" width="50" height="50" as="geometry"/>
                    </mxCell>
                </UserObject>
            </root>
        </mxGraphModel>
    </diagram>
</mxfile>